# xmcd
#
# Track frame offsets:
#	150
#	16521
#	32796
#	48990
#	66120
#	85026
#	98267
#	119757
#	138070
#	155799
#	171753
#	189257
#
# Disc length: 2718 seconds
#
# Revision: 0
# Processed by: cddbd v1.5.2PL0 Copyright (c) Steve Scherf et al.
# Submitted via: dBpowerAMP V4.0
#
DISCID=8b0a9c0c
DTITLE=Jackie Gore - Soul Provider
DYEAR=2007
DGENRE=Beach
TTITLE0=where did i go wrong
TTITLE1=just a kiss away
TTITLE2=concrete jungle
TTITLE3=this is what you mean to me
TTITLE4=over and over again
TTITLE5=whatever makes you happy
TTITLE6=someone like you
TTITLE7=i just can't get you out of my mind
TTITLE8=my unknown love
TTITLE9=let'em in
TTITLE10=for your love duet with terri gore
TTITLE11=what price love
EXTD=
EXTT0=
EXTT1=
EXTT2=
EXTT3=
EXTT4=
EXTT5=
EXTT6=
EXTT7=
EXTT8=
EXTT9=
EXTT10=
EXTT11=
PLAYORDER=
